<?xml version="1.0" encoding="UTF-8"?>
<!DOCTYPE svg PUBLIC "-//W3C//DTD SVG 1.1//EN" "http://www.w3.org/Graphics/SVG/1.1/DTD/svg11.dtd">
<!-- Creator: CorelDRAW -->
<svg xmlns="http://www.w3.org/2000/svg" xml:space="preserve" width="12.9778mm" height="12.9778mm" version="1.1" style="shape-rendering:geometricPrecision; text-rendering:geometricPrecision; image-rendering:optimizeQuality; fill-rule:evenodd; clip-rule:evenodd"
viewBox="0 0 1021.04 1021.04"
 xmlns:xlink="http://www.w3.org/1999/xlink"
 xmlns:xodm="http://www.corel.com/coreldraw/odm/2003">
 <defs>
  <style type="text/css">
   <![CDATA[
    .str0 {stroke:#292D32;stroke-width:31.23;stroke-miterlimit:22.9256}
    .fil0 {fill:none}
    .fil3 {fill:none;fill-rule:nonzero}
    .fil2 {fill:#292D32;fill-rule:nonzero}
    .fil1 {fill:#292D32;fill-rule:nonzero}
   ]]>
  </style>
 </defs>
 <g id="Слой_x0020_1">
  <metadata id="CorelCorpID_0Corel-Layer"/>
  <rect class="fil0" width="1021.04" height="1021.04"/>
  <path id="Vector" class="fil1" d="M444.94 418.23c11.32,-11.32 26.68,-17.68 42.69,-17.68 16.01,0 31.37,6.36 42.69,17.68 11.32,11.32 17.68,26.68 17.68,42.68l0 249.8c0,16 -6.36,31.36 -17.68,42.68 -11.32,11.32 -26.68,17.68 -42.69,17.68 -16.01,0 -31.37,-6.36 -42.69,-17.68 -11.32,-11.32 -17.68,-26.68 -17.68,-42.68l0 -249.8c0,-16 6.36,-31.36 17.68,-42.68zm58.88 308.67c4.3,-4.29 6.7,-10.12 6.7,-16.18l0 -249.8c0,-6.07 -2.41,-11.9 -6.7,-16.18 -4.3,-4.3 -10.12,-6.71 -16.19,-6.71 -6.07,0 -11.9,2.42 -16.19,6.71 -4.3,4.29 -6.7,10.12 -6.7,16.18l0 249.8c0,6.07 2.41,11.9 6.7,16.18 4.3,4.3 10.12,6.71 16.19,6.71 6.07,0 11.9,-2.42 16.19,-6.71z"/>
  <path id="Vector_2" class="fil2" d="M632.29 293.34c11.32,-11.32 26.68,-17.68 42.69,-17.68 16,0 31.36,6.36 42.68,17.68 11.32,11.32 17.68,26.68 17.68,42.68l0 374.7c0,16 -6.36,31.36 -17.68,42.68 -11.32,11.32 -26.68,17.68 -42.68,17.68 -16.01,0 -31.37,-6.36 -42.69,-17.68 -11.32,-11.32 -17.68,-26.68 -17.68,-42.68l0 -374.7c0,-16 6.36,-31.36 17.68,-42.68zm58.87 433.57c4.3,-4.29 6.71,-10.12 6.71,-16.18l0 -374.7c0,-6.07 -2.42,-11.9 -6.71,-16.18 -4.29,-4.3 -10.12,-6.71 -16.18,-6.71 -6.07,0 -11.9,2.42 -16.19,6.71 -4.3,4.29 -6.71,10.12 -6.71,16.18l0 374.7c0,6.07 2.42,11.9 6.71,16.18 4.29,4.3 10.12,6.71 16.19,6.71 6.07,0 11.9,-2.42 16.18,-6.71z"/>
  <path class="fil3 str0" d="M300.28 538.98l0 0c25.87,0 46.84,20.98 46.84,46.84l0 124.91c0,25.85 -20.98,46.83 -46.84,46.83l-0.01 0.01c-25.85,-0.01 -46.83,-20.98 -46.83,-46.84l-0.01 -124.89c0.01,-25.87 20.98,-46.84 46.84,-46.84z"/>
 </g>
</svg>
