<?xml version="1.0" encoding="UTF-8"?>
<!DOCTYPE svg PUBLIC "-//W3C//DTD SVG 1.1//EN" "http://www.w3.org/Graphics/SVG/1.1/DTD/svg11.dtd">
<!-- Creator: CorelDRAW -->
<svg xmlns="http://www.w3.org/2000/svg" xml:space="preserve" width="10.1864mm" height="6.6145mm" version="1.1" style="shape-rendering:geometricPrecision; text-rendering:geometricPrecision; image-rendering:optimizeQuality; fill-rule:evenodd; clip-rule:evenodd"
viewBox="0 0 92.59 60.13"
 xmlns:xlink="http://www.w3.org/1999/xlink"
 xmlns:xodm="http://www.corel.com/coreldraw/odm/2003">
 <defs>
  <style type="text/css">
   <![CDATA[
    .fil0 {fill:#33A9FF}
   ]]>
  </style>
 </defs>
 <g id="Слой_x0020_1">
  <metadata id="CorelCorpID_0Corel-Layer"/>
  <path id="Union" class="fil0" d="M62.53 4.81l-32.47 0c-13.95,0 -25.25,11.31 -25.25,25.25 0,13.95 11.31,25.25 25.25,25.25l32.47 0c13.95,0 25.25,-11.31 25.25,-25.25 0,-13.95 -11.31,-25.25 -25.25,-25.25zm0 55.32c16.6,0 30.06,-13.46 30.06,-30.06 0,-16.6 -13.46,-30.06 -30.06,-30.06l-32.47 0c-16.6,0 -30.06,13.46 -30.06,30.06 0,16.6 13.46,30.06 30.06,30.06l32.47 0zm-18.04 -27.66l-21.65 0 0 -4.81 21.65 0 0 4.81z"/>
 </g>
</svg>
