<?xml version="1.0" encoding="UTF-8"?>
<!DOCTYPE svg PUBLIC "-//W3C//DTD SVG 1.1//EN" "http://www.w3.org/Graphics/SVG/1.1/DTD/svg11.dtd">
<!-- Creator: CorelDRAW -->
<svg xmlns="http://www.w3.org/2000/svg" xml:space="preserve" width="4.8724mm" height="4.8724mm" version="1.1" style="shape-rendering:geometricPrecision; text-rendering:geometricPrecision; image-rendering:optimizeQuality; fill-rule:evenodd; clip-rule:evenodd"
viewBox="0 0 43.13 43.13"
 xmlns:xlink="http://www.w3.org/1999/xlink"
 xmlns:xodm="http://www.corel.com/coreldraw/odm/2003">
 <defs>
  <style type="text/css">
   <![CDATA[
    .fil0 {fill:#333333;fill-rule:nonzero}
   ]]>
  </style>
 </defs>
 <g id="Слой_x0020_1">
  <metadata id="CorelCorpID_0Corel-Layer"/>
  <path class="fil0" d="M42.62 40.09l-10.72 -10.72c2.92,-3.57 4.36,-8.13 4.01,-12.73 -0.35,-4.6 -2.45,-8.89 -5.87,-11.99 -3.42,-3.1 -7.9,-4.76 -12.51,-4.64 -4.61,0.12 -9,2 -12.27,5.26 -3.26,3.26 -5.15,7.65 -5.26,12.27 -0.12,4.61 1.55,9.09 4.64,12.51 3.1,3.42 7.39,5.52 11.99,5.87 4.6,0.35 9.16,-1.09 12.73,-4.01l10.72 10.72c0.34,0.33 0.79,0.51 1.26,0.5 0.47,-0 0.92,-0.19 1.25,-0.53 0.33,-0.33 0.52,-0.78 0.53,-1.25 0,-0.47 -0.18,-0.93 -0.5,-1.26zm-24.61 -7.71c-2.84,0 -5.62,-0.84 -7.98,-2.42 -2.36,-1.58 -4.2,-3.82 -5.29,-6.45 -1.09,-2.62 -1.37,-5.51 -0.82,-8.3 0.55,-2.79 1.92,-5.35 3.93,-7.35 2.01,-2.01 4.57,-3.38 7.35,-3.93 2.79,-0.55 5.67,-0.27 8.3,0.82 2.63,1.09 4.87,2.93 6.45,5.29 1.58,2.36 2.42,5.14 2.42,7.98 -0,3.81 -1.52,7.46 -4.21,10.15 -2.69,2.69 -6.34,4.21 -10.15,4.21z"/>
 </g>
</svg>
