<svg width="94" height="38" viewBox="0 0 94 38" fill="none" xmlns="http://www.w3.org/2000/svg">
<g id="&#209;&#129;&#208;&#190;&#209;&#134;">
<g id="Group 1202">
<circle id="Ellipse 218" cx="18.856" cy="18.856" r="17.356" stroke="#292D32" stroke-width="3"/>
<path id="Vector" d="M22.9521 19.9545L23.4407 16.5678H20.3841V14.3709C20.3841 13.4444 20.8112 12.5403 22.1802 12.5403H23.5699V9.65694C23.5699 9.65694 22.3087 9.4281 21.1029 9.4281C18.5855 9.4281 16.9401 11.0501 16.9401 13.9865V16.5678H14.1418V19.9545H16.9401V28.1418C18.0812 28.3316 19.2431 28.3316 20.3841 28.1418V19.9545H22.9521Z" fill="#292D32"/>
</g>
<g id="Group 1191">
<path id="Ellipse 216" d="M65.3672 33.3911L64.77 33.0004L64.09 33.2173C63.6767 33.3492 63.1225 33.5214 62.493 33.717C61.6119 33.9907 60.5832 34.3103 59.5864 34.6295C59.7 34.2695 59.8157 33.9016 59.93 33.5356C60.3659 32.139 60.8171 30.656 60.9312 29.9866L61.0355 29.3748L60.6771 28.8681C58.6757 26.0395 57.5 22.5873 57.5 18.856C57.5 9.27056 65.2706 1.5 74.856 1.5C84.4415 1.5 92.212 9.27056 92.212 18.856C92.212 28.4415 84.4415 36.212 74.856 36.212C71.3514 36.212 68.0936 35.1749 65.3672 33.3911Z" stroke="#292D32" stroke-width="3"/>
<path id="Vector_2" d="M84.2839 24.824C84.2839 25.1635 84.2083 25.5123 84.0478 25.8517C83.8873 26.1911 83.6796 26.5117 83.4058 26.8134C82.9431 27.3225 82.4332 27.6902 81.8572 27.9259C81.2907 28.1616 80.677 28.2841 80.016 28.2841C79.0529 28.2841 78.0237 28.0579 76.9379 27.5959C75.852 27.1339 74.7662 26.5117 73.6898 25.7291C72.6039 24.9372 71.5747 24.0604 70.5927 23.0893C69.6202 22.1088 68.7421 21.0811 67.9584 20.0063C67.1841 18.9315 66.5609 17.8567 66.1077 16.7914C65.6545 15.7166 65.4279 14.6889 65.4279 13.7084C65.4279 13.0673 65.5412 12.4545 65.7678 11.8888C65.9944 11.3137 66.3532 10.7857 66.8536 10.3143C67.4579 9.72037 68.1189 9.4281 68.8176 9.4281C69.082 9.4281 69.3464 9.48467 69.5824 9.5978C69.8279 9.71094 70.0451 9.88065 70.215 10.1258L72.4056 13.2087C72.5756 13.4444 72.6983 13.6613 72.7833 13.8687C72.8683 14.0667 72.9155 14.2647 72.9155 14.4438C72.9155 14.6701 72.8494 14.8963 72.7172 15.1132C72.5945 15.33 72.4151 15.5563 72.1885 15.7826L71.4708 16.5274C71.367 16.6311 71.3198 16.7537 71.3198 16.9045C71.3198 16.9799 71.3292 17.0459 71.3481 17.1214C71.3764 17.1968 71.4048 17.2534 71.4236 17.3099C71.5936 17.621 71.8863 18.0264 72.3018 18.5167C72.7267 19.007 73.1799 19.5066 73.6709 20.0063C74.1808 20.506 74.6717 20.968 75.1722 21.3922C75.6632 21.8071 76.0692 22.0899 76.3902 22.2596C76.4374 22.2785 76.4941 22.3068 76.5602 22.335C76.6357 22.3633 76.7113 22.3728 76.7962 22.3728C76.9568 22.3728 77.0795 22.3162 77.1834 22.2125L77.901 21.5054C78.137 21.2697 78.3636 21.0906 78.5808 20.9774C78.798 20.8454 79.0151 20.7794 79.2512 20.7794C79.4306 20.7794 79.6194 20.8171 79.8272 20.902C80.0349 20.9868 80.2521 21.1094 80.4881 21.2697L83.6135 23.4853C83.859 23.655 84.0289 23.853 84.1328 24.0887C84.2272 24.3244 84.2839 24.5601 84.2839 24.824Z" fill="#292D32"/>
</g>
</g>
</svg>
