<?xml version="1.0" encoding="UTF-8"?>
<!DOCTYPE svg PUBLIC "-//W3C//DTD SVG 1.1//EN" "http://www.w3.org/Graphics/SVG/1.1/DTD/svg11.dtd">
<!-- Creator: CorelDRAW -->
<svg xmlns="http://www.w3.org/2000/svg" xml:space="preserve" width="12.9778mm" height="12.9778mm" version="1.1" style="shape-rendering:geometricPrecision; text-rendering:geometricPrecision; image-rendering:optimizeQuality; fill-rule:evenodd; clip-rule:evenodd"
viewBox="0 0 1013.45 1013.45"
 xmlns:xlink="http://www.w3.org/1999/xlink"
 xmlns:xodm="http://www.corel.com/coreldraw/odm/2003">
 <defs>
  <style type="text/css">
   <![CDATA[
    .fil0 {fill:none}
    .fil1 {fill:#292D32;fill-rule:nonzero}
   ]]>
  </style>
 </defs>
 <g id="Слой_x0020_1">
  <metadata id="CorelCorpID_0Corel-Layer"/>
  <rect class="fil0" width="1013.45" height="1013.45"/>
  <g id="_1491798470864">
   <g id="clarity:shopping-bag-line">
    <path id="Vector" class="fil1" d="M611.53 416.53l0 -44.17c0,-13.77 -2.71,-27.39 -7.98,-40.11 -5.26,-12.72 -12.99,-24.27 -22.72,-34 -9.73,-9.73 -21.29,-17.45 -34,-22.72 -12.72,-5.26 -26.35,-7.97 -40.11,-7.97 -13.75,0 -27.39,2.71 -40.1,7.97 -12.71,5.27 -24.27,12.99 -34,22.72 -9.73,9.73 -17.45,21.28 -22.72,34 -5.27,12.71 -7.98,26.34 -7.98,40.11l0 104.79c0,3.97 1.58,7.79 4.39,10.59 2.8,2.81 6.61,4.39 10.58,4.39 3.97,0 7.78,-1.58 10.59,-4.39 2.81,-2.8 4.39,-6.61 4.39,-10.59l0 -30.68 119.77 0 0 -29.94 -119.77 0 0 -44.17c0,-19.86 7.89,-38.9 21.92,-52.94 14.04,-14.04 33.09,-21.93 52.93,-21.93 19.85,0 38.9,7.89 52.93,21.93 14.04,14.04 21.93,33.08 21.93,52.94l0 104.06c0,3.96 1.58,7.77 4.39,10.57 2.8,2.81 6.61,4.39 10.58,4.39 3.97,0 7.79,-1.58 10.59,-4.39 2.81,-2.8 4.39,-6.61 4.39,-10.57l0 -29.95 74.86 0 0 269.49 -359.32 0 0 -269.49 44.92 0 0 -29.94 -74.87 0 0 300.78c0,7.58 3.01,14.86 8.38,20.23 5.36,5.36 12.64,8.37 20.22,8.37l362.02 0c7.58,0 14.85,-3.01 20.22,-8.37 5.36,-5.36 8.37,-12.64 8.37,-20.23l0 -300.78 -104.8 0z"/>
   </g>
  </g>
 </g>
</svg>
